0
SECTION
2
HEADER
9
$INSUNITS
70
1
9
$ACADVER
1
AC1014
9
$HANDSEED
5
FFFF
0
ENDSEC
0
SECTION
2
TABLES
0
TABLE
2
VPORT
5
8
100
AcDbSymbolTable
0
ENDTAB
0
TABLE
2
LTYPE
5
5
100
AcDbSymbolTable
0
LTYPE
5
14
100
AcDbSymbolTableRecord
100
AcDbLinetypeTableRecord
2
BYBLOCK
70
0
0
LTYPE
5
15
100
AcDbSymbolTableRecord
100
AcDbLinetypeTableRecord
2
BYLAYER
70
0
0
LTYPE
5
16
100
AcDbSymbolTableRecord
100
AcDbLinetypeTableRecord
2
DASHED
70
0
3
Dashed __ __ __ __ __ __ __ __ __ __ __ __ __ _
72
65
73
2
40
0.75
49
0.5
74
0
49
-0.25
74
0
0
ENDTAB
0
TABLE
2
LAYER
5
2
100
AcDbSymbolTable
70
3
0
LAYER
5
50
100
AcDbSymbolTableRecord
100
AcDbLayerTableRecord
2
1
70
0
62
7
6
DASHED
0
LAYER
5
51
100
AcDbSymbolTableRecord
100
AcDbLayerTableRecord
2
0
70
0
62
7
6
CONTINUOUS
0
ENDTAB
0
TABLE
2
STYLE
5
3
100
AcDbSymbolTable
70
1
0
STYLE
5
11
100
AcDbSymbolTableRecord
100
AcDbTextStyleTableRecord
2
STANDARD
70
0
0
ENDTAB
0
TABLE
2
VIEW
5
6
100
AcDbSymbolTable
70
0
0
ENDTAB
0
TABLE
2
UCS
5
7
100
AcDbSymbolTable
70
0
0
ENDTAB
0
TABLE
2
APPID
5
9
100
AcDbSymbolTable
70
2
0
APPID
5
12
100
AcDbSymbolTableRecord
100
AcDbRegAppTableRecord
2
ACAD
70
0
0
ENDTAB
0
TABLE
2
DIMSTYLE
5
A
100
AcDbSymbolTable
70
1
0
ENDTAB
0
TABLE
2
BLOCK_RECORD
5
1
100
AcDbSymbolTable
70
1
0
BLOCK_RECORD
5
1F
100
AcDbSymbolTableRecord
100
AcDbBlockTableRecord
2
*MODEL_SPACE
0
BLOCK_RECORD
5
1B
100
AcDbSymbolTableRecord
100
AcDbBlockTableRecord
2
*PAPER_SPACE
0
ENDTAB
0
ENDSEC
0
SECTION
2
BLOCKS
0
BLOCK
5
20
100
AcDbEntity
100
AcDbBlockBegin
2
*MODEL_SPACE
0
ENDBLK
5
21
100
AcDbEntity
100
AcDbBlockEnd
0
BLOCK
5
1C
100
AcDbEntity
100
AcDbBlockBegin
2
*PAPER_SPACE
0
ENDBLK
5
1D
100
AcDbEntity
100
AcDbBlockEnd
0
ENDSEC
0
SECTION
2
ENTITIES
0
POINT
5
100
100
AcDbEntity
8
0
100
AcDbPoint
10
0
20
0
30
0
0
ARC
5
101
100
AcDbEntity
8
0
100
AcDbCircle
10
23.468654964006909
20
6.5081053166236416
30
0
40
9.3710621210132832
210
0
220
0
230
1
100
AcDbArc
50
222.57211183781055
51
237.54530860619349
0
ARC
5
102
100
AcDbEntity
8
0
100
AcDbCircle
10
7.0691376039664311
20
-5.1344154921963048
30
0
40
9.371062121012887
210
0
220
-0
230
1
100
AcDbArc
50
13.198915069426775
51
28.172111837810334
0
LINE
5
103
100
AcDbEntity
8
0
100
AcDbLine
10
16.299094415843012
20
0.46065289437277873
30
0
11
16.567556834575882
21
0.16841684763294384
31
0
0
LINE
5
104
100
AcDbEntity
8
0
100
AcDbLine
10
15.142689426751623
20
-0.36031450688289102
30
0
11
15.330041455442915
21
-0.71013330945257946
31
0
0
LINE
5
105
100
AcDbEntity
8
0
100
AcDbLine
10
15.142689426751623
20
-0.36031450688289102
30
0
11
15.047514596176445
21
-0.18260655517748833
31
0
0
LINE
5
106
100
AcDbEntity
8
0
100
AcDbLine
10
16.299094415843015
20
0.46065289437277385
30
0
11
16.162715507126716
21
0.60910880611661233
31
0
0
LINE
5
107
100
AcDbEntity
8
0
100
AcDbLine
10
14.516588336690431
20
0.79439327539255689
30
0
11
13.923492138110108
21
1.9003727492213305
31
0
0
LINE
5
108
100
AcDbEntity
8
0
100
AcDbLine
10
15.41546512572377
20
1.4325335017863889
30
0
11
14.566953531431651
21
2.357185745417929
31
0
0
ARC
5
109
100
AcDbEntity
8
0
100
AcDbCircle
10
14.74099873786232
20
2.5168991691450837
30
0
40
0.23622047244077748
210
0
220
0
230
1
100
AcDbArc
50
215.37211183780519
51
222.54119761712391
0
LINE
5
110
100
AcDbEntity
8
0
100
AcDbLine
10
14.548382283069586
20
2.3801548349179482
30
0
11
14.44896524613527
21
2.5201924994289699
31
0
0
ARC
5
111
100
AcDbEntity
8
0
100
AcDbCircle
10
14.641581700928375
20
2.656936833656391
30
0
40
0.23622047244124589
210
0
220
0
230
1
100
AcDbArc
50
210.37211183781545
51
215.37211183780954
0
ARC
5
112
100
AcDbEntity
8
0
100
AcDbCircle
10
13.715316116090785
20
1.7887355893852592
30
0
40
0.23622047244058822
210
0
220
-0
230
1
100
AcDbArc
50
28.203026058497329
51
35.372111837821663
0
LINE
5
113
100
AcDbEntity
8
0
100
AcDbLine
10
13.907932570883325
20
1.9254799236123405
30
0
11
13.808515533949011
21
2.0655175881233649
31
0
0
ARC
5
114
100
AcDbEntity
8
0
100
AcDbCircle
10
13.615899079156286
20
1.928773253896209
30
0
40
0.2362204724407824
210
0
220
-0
230
1
100
AcDbArc
50
35.372111837810486
51
40.37211183781416
0
LINE
5
115
100
AcDbEntity
8
0
100
AcDbLine
10
13.795864516169916
20
2.0817848648302797
30
0
11
11.600715916203786
21
4.6636208097706664
31
0
0
LINE
5
116
100
AcDbEntity
8
0
100
AcDbLine
10
14.437780155882143
20
2.5375004830878414
30
0
11
12.724311902495467
21
5.4612960927629599
31
0
0
SPLINE
5
117
100
AcDbEntity
8
0
100
AcDbSpline
70
0
71
3
72
12
73
8
74
0
42
0.000000001
43
0.0000000001
44
0.0000000001
40
-1.3877787807814457e-17
40
-1.3877787807814457e-17
40
-1.3877787807814457e-17
40
-1.3877787807814457e-17
40
0.32582266539103211
40
0.48090207585361799
40
0.50373246373339375
40
0.61551127818985307
40
1
40
1
40
1
40
1
10
1.2277622288820453
20
5.5374967330444136
30
0
10
2.3902231981334396
20
6.7151560065154952
30
0
10
3.647393849291269
20
8.739071144797153
30
0
10
6.1229306132895323
20
9.1821252062558223
30
0
10
7.524306423939354
20
9.1768610764600886
30
0
10
9.9653698301860505
20
8.8267158641053776
30
0
10
11.996083705351143
20
7.1540442200485845
30
0
10
12.724311902495467
20
5.4612960927629599
30
0
0
SPLINE
5
118
100
AcDbEntity
8
0
100
AcDbSpline
70
0
71
3
72
15
73
11
74
0
42
0.000000001
43
0.0000000001
44
0.0000000001
40
0
40
0
40
0
40
0
40
0.18946269993909681
40
0.27773852701996904
40
0.30641355029458417
40
0.32582266539103211
40
0.50373246373339375
40
0.61551127818985307
40
0.65260921545979245
40
1
40
1
40
1
40
1
10
2.4045628671185773
20
4.3758833178941652
30
0
10
3.1605236914578256
20
5.1417277623207811
30
0
10
3.8157444790843122
20
5.2855951851834284
30
0
10
4.8674868135765248
20
4.9298591293220868
30
0
10
5.3362798268968428
20
4.8900933223729988
30
0
10
6.1096551930375984
20
4.9053390270556445
30
0
10
7.1390632441998836
20
5.3469785489755814
30
0
10
8.0351850519751054
20
6.1237272127599072
30
0
10
9.523539790472114
20
6.7209977794435121
30
0
10
11.101654987869429
20
5.5023950842276603
30
0
10
11.600715916203786
20
4.6636208097706673
30
0
0
ARC
5
119
100
AcDbEntity
8
0
100
AcDbCircle
10
6.9455781064801592
20
0.29395226038134059
30
0
40
7.7721480372345457
210
0
220
0
230
1
100
AcDbArc
50
139.5084544605557
51
180.28047932352641
0
ARC
5
120
100
AcDbEntity
8
0
100
AcDbCircle
10
7.0813466156613325
20
0.25590551181103377
30
0
40
6.2545749621180189
210
0
220
0
230
1
100
AcDbArc
50
141.14303185699151
51
180
0
LINE
5
121
100
AcDbEntity
8
0
100
AcDbLine
10
18.43983847357357
20
-1.3993474958461085
30
0
11
20.176491518259652
21
-3.8455764717154093
31
0
0
LINE
5
122
100
AcDbEntity
8
0
100
AcDbLine
10
17.929299545676297
20
-5.4409270376999963
30
0
11
20.176491518259652
21
-3.8455764717154093
31
0
0
LINE
5
123
100
AcDbEntity
8
0
100
AcDbLine
10
0.82677165354331217
20
0
30
0
11
0.82677165354331161
21
-3
31
0
0
LINE
5
124
100
AcDbEntity
8
0
100
AcDbLine
10
0.82677165354331161
20
-3
30
0
11
-0.82522406457277797
21
-3
31
0
0
LINE
5
125
100
AcDbEntity
8
0
100
AcDbLine
10
-0.82522406457277797
20
-3
30
0
11
-0.82522406457277797
21
0
31
0
0
ARC
5
126
100
AcDbEntity
8
0
100
AcDbCircle
10
15.647424889584558
20
0.89074892987313548
30
0
40
0.42500000000003002
210
-0
220
0
230
1
100
AcDbArc
50
-20.086039155716914
51
19.63836888180964
0
ARC
5
127
100
AcDbEntity
8
0
100
AcDbCircle
10
15.647424889584558
20
0.89074892987313548
30
0
40
0.42500000000002475
210
0
220
0
230
1
100
AcDbArc
50
105.1684343899644
51
145.4440263524381
0
LINE
5
128
100
AcDbEntity
8
0
100
AcDbLine
10
16.047703745417824
20
1.0335839310907486
30
0
11
15.29740659436229
21
1.1318136369741947
31
0
0
LINE
5
129
100
AcDbEntity
8
0
100
AcDbLine
10
16.162715507126716
20
0.60910880611661233
30
0
11
16.046575523122172
21
0.74479081346111409
31
0
0
LINE
5
130
100
AcDbEntity
8
0
100
AcDbLine
10
15.41546512572377
20
1.4325335017863889
30
0
11
15.536220457057269
21
1.3009422674425124
31
0
0
LINE
5
131
100
AcDbEntity
8
0
100
AcDbLine
10
15.047514596176445
20
-0.18260655517748833
30
0
11
14.963193463859605
21
-0.025164344679749224
31
0
0
LINE
5
132
100
AcDbEntity
8
0
100
AcDbLine
10
14.516588336690431
20
0.79439327539255689
30
0
11
14.600994405451283
21
0.63699658369305823
31
0
0
ARC
5
133
100
AcDbEntity
8
0
100
AcDbCircle
10
14.953596562709549
20
0.39972728796126744
30
0
40
0.42500000000003263
210
0
220
0
230
1
100
AcDbArc
50
231.10585479376647
51
271.29390275773773
0
ARC
5
134
100
AcDbEntity
8
0
100
AcDbCircle
10
14.953596562709549
20
0.39972728796126744
30
0
40
0.4250000000002877
210
0
220
0
230
1
100
AcDbArc
50
105.30019732320891
51
146.06302039716346
0
LINE
5
135
100
AcDbEntity
8
0
100
AcDbLine
10
14.841449104676887
20
0.80966380457945863
30
0
11
14.686746062773388
21
0.068946679878133438
31
0
0
LINE
5
136
100
AcDbEntity
8
0
100
AcDbLine
10
17.929299545676297
20
-5.4409270376999963
30
0
11
16.192646500990218
21
-2.9946980618306975
31
0
0
LINE
5
137
100
AcDbEntity
8
0
100
AcDbLine
10
-0.82522406457277797
20
0
30
0
11
-0.82647680567865933
21
0.25590551181102655
31
0
0
LINE
5
138
100
AcDbEntity
8
0
100
AcDbLine
10
2.4045628671185773
20
4.3758833178941652
30
0
11
2.2108180314990409
21
4.1798906376253102
31
0
0
LINE
5
139
100
AcDbEntity
8
0
100
AcDbLine
10
0.82677165354331217
20
0
30
0
11
0.8267716535433125
21
0.25590551181103494
31
0
0
LINE
5
140
100
AcDbEntity
8
0
100
AcDbLine
10
1.2277622288820453
20
5.5374967330444136
30
0
11
1.0348456222079696
21
5.3406865125545524
31
0
0
ENDSEC
0
SECTION
2
OBJECTS
0
DICTIONARY
5
C
100
AcDbDictionary
3
ACAD_GROUP
350
D
3
ACAD_MLINESTYLE
350
17
0
DICTIONARY
5
D
100
AcDbDictionary
0
DICTIONARY
5
1A
330
C
100
AcDbDictionary
0
DICTIONARY
5
17
100
AcDbDictionary
0
ENDSEC
0
EOF
